<?xml version="1.0" encoding="UTF-8"?>
<svg width="29px" height="23px" viewBox="0 0 29 23" version="1.1" xmlns="http://www.w3.org/2000/svg" xmlns:xlink="http://www.w3.org/1999/xlink">
    <!-- Generator: Sketch 52.5 (67469) - http://www.bohemiancoding.com/sketch -->
    <title>black-back-closed-envelope-shape</title>
    <desc>Created with Sketch.</desc>
    <g id="Symbols" stroke="none" stroke-width="1" fill="none" fill-rule="evenodd">
        <g id="footer+map" transform="translate(-263.000000, -573.000000)" fill="#FFFFFF">
            <g id="footer">
                <g transform="translate(0.000000, 245.000000)">
                    <g id="Group-16" transform="translate(260.000000, 156.000000)">
                        <g id="Group-13">
                            <g id="Group-9-Copy" transform="translate(3.000000, 172.000000)">
                                <g id="black-back-closed-envelope-shape">
                                    <path d="M26.3165221,23 C26.9632421,23 27.5236179,22.7813345 28,22.3495664 L19.8487994,14.0022466 C19.653232,14.1456522 19.4636716,14.2850996 19.2846104,14.4177003 C18.6746115,14.8779248 18.1795293,15.237054 17.7993639,15.4943925 C17.4192507,15.7523194 16.9135126,16.0152208 16.2822018,16.2836316 C15.6504732,16.5523633 15.0619428,16.6863013 14.5159839,16.6863013 L14.5,16.6863013 L14.4840161,16.6863013 C13.9380049,16.6863013 13.3494746,16.5524168 12.7177982,16.2836316 C12.0861218,16.0152208 11.5803837,15.7523194 11.2006361,15.4943925 C10.8205229,15.237054 10.3257019,14.8779783 9.71538956,14.4177003 C9.54531279,14.2900206 9.35669264,14.1499314 9.15276767,14 L1,22.3495664 C1.47632986,22.7813345 2.03707129,23 2.68373909,23 L26.3165221,23 Z" id="Path"></path>
                                    <path d="M1.58010339,8.46434453 C0.985815139,8.03808361 0.458808646,7.54989576 0,7 L0,20 L7,12.4690618 C5.59960303,11.4172349 3.79526105,10.0838623 1.58010339,8.46434453 Z" id="Path"></path>
                                    <path d="M27.4350988,8.46430753 C25.3035727,10.0157814 23.491941,11.35142 22,12.471935 L29,20 L29,7 C28.5511907,7.53882181 28.0296248,8.0266688 27.4350988,8.46430753 Z" id="Path"></path>
                                    <path d="M26.4104821,0 L2.58914938,0 C1.7580943,0 1.11916542,0.290305011 0.671572962,0.870315904 C0.223611946,1.45059913 0,2.17630719 0,3.04662309 C0,3.74961874 0.296745215,4.51132898 0.889972385,5.33197168 C1.48319956,6.15228758 2.11444128,6.79662309 2.78338166,7.26530501 C3.15010104,7.53333333 4.25599821,8.32864924 6.10107319,9.65098039 C7.09708618,10.3649782 7.96325998,10.9873094 8.70759765,11.5243464 C9.34205113,11.9816449 9.88920803,12.3776688 10.34096,12.7063181 C10.3928219,12.7439542 10.4743795,12.8043028 10.5826315,12.8843682 C10.6992551,12.971024 10.8468379,13.0809913 11.0289076,13.2169935 C11.3795156,13.4793028 11.670785,13.6913399 11.9027686,13.8533224 C12.1344362,14.0153595 12.4151227,14.1963508 12.7444067,14.3973312 C13.0734274,14.5980392 13.3837568,14.7489651 13.6750262,14.8493464 C13.9663483,14.9496732 14.2360305,15 14.4841255,15 L14.5002369,15 L14.5163484,15 C14.7643907,15 15.0341256,14.9496732 15.3255003,14.8493464 C15.6167171,14.7489651 15.9267832,14.598366 16.2560672,14.3973312 C16.5850353,14.1963508 16.8653532,14.0149782 17.0977579,13.8533224 C17.3297415,13.6913399 17.6210109,13.4793573 17.9716715,13.2169935 C18.1533727,13.0809913 18.3009555,12.9709695 18.4175791,12.8846405 C18.5258838,12.8042484 18.6073887,12.744281 18.6595665,12.7063181 C19.0114908,12.4529956 19.5599113,12.0586057 20.2972463,11.528976 C21.638918,10.5646514 23.6148325,9.1453159 26.2333089,7.26530501 C27.020821,6.6962963 27.6787572,6.00964052 28.2075386,5.20631808 C28.7353723,4.40299564 29,3.56034858 29,2.67864924 C29,1.94199346 28.7434281,1.31165577 28.2313899,0.786655773 C27.7187725,0.262309368 27.1117506,0 26.4104821,0 Z" id="Path"></path>
                                </g>
                            </g>
                        </g>
                    </g>
                </g>
            </g>
        </g>
    </g>
</svg>