<?xml version="1.0" encoding="UTF-8"?>
<svg width="60px" height="60px" viewBox="0 0 60 60" version="1.1" xmlns="http://www.w3.org/2000/svg" xmlns:xlink="http://www.w3.org/1999/xlink">
    <!-- Generator: Sketch 52.5 (67469) - http://www.bohemiancoding.com/sketch -->
    <title>location</title>
    <desc>Created with Sketch.</desc>
    <g id="Symbols" stroke="none" stroke-width="1" fill="none" fill-rule="evenodd">
        <g id="footer+map" transform="translate(-692.000000, -39.000000)" fill="#FFFFFF" fill-rule="nonzero">
            <g id="map">
                <g>
                    <g id="Group-18" transform="translate(653.000000, 0.000000)">
                        <g id="location" transform="translate(39.000000, 39.000000)">
                            <path d="M59.8997951,27.7474586 C59.9345001,27.6535252 59.9545412,27.5551887 59.9589404,27.4548953 C59.9589404,27.3492203 59.9418322,27.2440344 59.9090824,27.1437409 L59.8318513,26.9250523 C59.0145703,19.0189931 55.0933813,11.7616612 48.9300465,6.7499241 C48.4896338,6.39082469 48.0291801,6.06646097 47.5687263,5.73378026 C47.5457524,5.71470001 47.5335324,5.68779198 47.5086033,5.66969027 C47.4836742,5.65158855 47.4636333,5.6535455 47.4426148,5.64033609 C42.3468288,1.98427295 36.2377513,0.0131397729 29.9678571,0.00139810074 C29.7097684,0.00139810074 29.4502132,0.00139810074 29.2571355,0.0214567593 C25.9127358,0.0865251612 22.6045075,0.723510938 19.4746929,1.90501673 C16.7613397,-0.213376684 13.0781984,-0.597427179 9.98651045,0.915780788 C6.8948226,2.42898875 4.93618343,5.57477848 4.94107141,9.01900231 C5.00119438,10.1647938 5.26710398,11.2900373 5.7270689,12.3404278 C4.70546775,13.738176 3.80606763,15.2210513 3.03913342,16.7733982 C3.02398058,16.7973709 3.01518204,16.8233004 3.00198429,16.8482515 C-4.09545573,31.536594 1.8102792,49.2102567 16.3087067,56.669154 C30.8066455,64.1285405 48.6030364,58.6495827 56.40631,44.3242535 C58.5433629,40.3834548 59.7580418,36.0082141 59.9579628,31.5292555 C59.9892462,31.0458899 60,30.553229 60,30.0600788 C60,29.2836607 59.9599181,28.514092 59.8997951,27.7474586 Z M56.9909201,22.6055847 C56.8638309,22.4925711 56.7465179,22.361945 56.6135631,22.2577376 C55.3055225,21.2636094 53.8229787,20.5224163 52.242674,20.0728081 C50.8036338,19.7112624 49.2995827,19.6956068 47.8532105,20.0268199 C46.6228897,20.3056846 45.3471103,20.3120448 44.1138567,20.0454109 C41.7206703,19.5224172 39.8294861,19.109991 38.8264595,17.5067635 C37.3898633,15.2019711 38.0634357,11.9627373 39.5792183,10.8228166 C40.0787763,10.477905 40.6951586,10.3463005 41.2919889,10.4568679 C42.3536721,10.5439519 43.420732,10.363913 44.3954081,9.9338742 C45.4326511,9.44757334 46.3540474,8.74551916 47.0984965,7.87370007 C47.2876637,8.01998164 47.4875847,8.15158631 47.6728416,8.30276031 C52.190372,11.9837745 55.4472758,16.9837699 56.9909201,22.6055847 Z M13.9507143,2.00531015 C17.8186235,2.01167019 20.9523486,5.14816439 20.9582143,9.01900231 C20.9582143,12.0160641 16.4607249,18.8776037 13.9507143,22.3560741 C11.5707256,19.136899 9.50259415,15.6975676 7.77515943,12.0850465 C7.30444076,11.1256539 7.02191175,10.0850483 6.94321427,9.01900231 C6.94761348,5.14718586 10.0823162,2.00971324 13.9507143,2.00531015 Z M1.93785712,30.0600788 C1.94176756,28.1931529 2.12995722,26.3306301 2.49949336,24.500397 C2.60654155,25.8932529 2.78788802,27.1324885 2.95017108,28.2073407 C3.57046385,32.3154583 4.15654036,36.1882531 7.18175082,39.729835 C8.44677663,41.2220058 10.5652549,43.7166219 13.8407333,44.0855062 C17.1162116,44.4543903 21.2177694,42.5683842 22.4026313,41.9813006 L22.8572194,41.7518488 C23.4867994,41.3550781 24.2063195,41.1246478 24.9488135,41.081595 C26.2153057,41.1965656 27.3884363,41.7963693 28.2242918,42.7557617 C29.9326632,44.6486172 30.3662328,47.8090838 29.1520426,49.5189649 C28.7629543,50.0267923 28.2257582,50.4005688 27.6142639,50.5884356 C26.5677337,50.9387288 25.6781096,51.6486106 25.1037644,52.5923476 C24.2576441,54.1256143 24.100249,55.9460626 24.6711726,57.6021277 C11.48714,55.0453786 1.95838684,43.5013579 1.93785712,30.0600788 Z M29.9678571,58.1148474 C29.0005132,58.1148474 28.0341469,58.0649453 27.071691,57.9656303 C26.9895719,57.8604445 26.9133184,57.7508556 26.8434194,57.6368634 C26.1669141,56.3844184 26.159582,54.8761029 26.8243559,53.6172977 C27.1855824,53.0429343 27.7452635,52.6217018 28.3963509,52.4338351 C29.3509859,52.104579 30.1839086,51.4925443 30.7836717,50.6794335 C32.524793,48.2288487 32.0320782,43.9832558 29.7127013,41.4152542 C28.5063319,40.0346293 26.799427,39.1931428 24.9708096,39.077683 L24.9263285,39.077683 C23.8719773,39.1094833 22.8445105,39.4157453 21.9441327,39.9666254 L21.5169177,40.1828679 C19.329518,41.2621232 16.2173003,42.3291476 14.0631393,42.0864864 C11.5770801,41.808111 9.85062289,39.7719094 8.70535413,38.4235739 C6.05016858,35.3174124 5.53056959,31.8805272 4.93031765,27.9030357 C4.2860735,24.500397 4.26065567,21.0096957 4.85406429,17.5977614 C5.39028269,16.5111675 5.99591139,15.4602879 6.66801735,14.4514826 C6.70125605,14.5180188 6.73791641,14.5860226 6.76822223,14.6520695 C6.83225563,14.7792709 6.89824426,14.9054939 6.96814332,15.0326954 C7.0683482,15.2220298 7.16855307,15.4113643 7.26875794,15.6021665 C7.33767946,15.7303463 7.40757852,15.8585263 7.4789439,15.9876847 C7.58501442,16.1779976 7.69206262,16.3683105 7.80008836,16.5586236 C7.87243142,16.6848465 7.9442857,16.8115587 8.01760642,16.9377816 C8.1290537,17.1280945 8.24050123,17.317429 8.35292618,17.5067635 C8.42673568,17.6310296 8.50005628,17.7543171 8.57484332,17.8776047 C8.69313405,18.0777024 8.81240233,18.2650799 8.9316706,18.4583282 C8.99961445,18.5679171 9.06658062,18.6789738 9.13159157,18.787095 C9.27969934,19.0248639 9.42682944,19.2552943 9.57395966,19.48866 C9.61306401,19.5488361 9.65216836,19.6119475 9.69029504,19.6711451 C9.87359673,19.9553914 10.055432,20.2327884 10.2338455,20.5033361 C10.3017894,20.6036295 10.367778,20.703923 10.4342554,20.8042165 C10.5442364,20.9695784 10.6542173,21.1349402 10.7612655,21.2929636 L10.9988244,21.6408105 C11.084854,21.7680121 11.1718612,21.8952134 11.2559356,22.016544 L11.4959385,22.361945 C11.5702367,22.469577 11.644535,22.5747628 11.7154117,22.6755454 C11.7862883,22.7768174 11.8664523,22.8912987 11.9407505,22.9945275 C12.01456,23.0977564 12.0649069,23.1696742 12.1240522,23.2528443 L12.3239732,23.5292629 L12.4872339,23.7557793 L12.6465841,23.9754465 L12.7766061,24.1515716 L12.8988072,24.3179118 L12.971639,24.4182053 C13.0610902,24.5395359 13.1290341,24.6305338 13.1480975,24.6554849 C13.3367759,24.9079309 13.6334802,25.0566587 13.9487591,25.0566587 C14.2640379,25.0566587 14.5607422,24.9079309 14.7494206,24.6554849 C15.5896754,23.5405153 22.9603571,13.6501134 22.9603571,9.01900231 C22.9603571,8.72643891 22.9422714,8.43583259 22.9144095,8.14718309 C22.905611,8.05814214 22.8914357,7.96910106 22.8801932,7.88006011 C22.8542866,7.67947315 22.8234919,7.47888631 22.7804771,7.27878868 C22.7614137,7.17849514 22.7403952,7.08456176 22.7183989,6.98818223 C22.6719625,6.78759527 22.618194,6.58749764 22.5570935,6.3869108 C22.5321645,6.30667604 22.5111458,6.22546275 22.4847505,6.14669573 C22.3948105,5.87810501 22.2936279,5.61244965 22.1787588,5.35413286 C22.1567627,5.30472002 22.1303673,5.25383944 22.1073935,5.2088297 C22.0071885,5.00041495 21.9074725,4.79395728 21.7921145,4.59239191 C21.7422565,4.50237242 21.6870217,4.41528829 21.6332531,4.32673655 C21.5369587,4.16871318 21.4367538,4.01313608 21.3326385,3.86000502 C21.2705603,3.77096406 21.2075046,3.68192311 21.1424935,3.59434978 C21.1082773,3.55031844 21.0794378,3.50335176 21.0422886,3.46029896 C23.1250842,2.7582449 25.2851109,2.31010429 27.4754434,2.12566222 C25.914691,5.07428967 25.4048679,7.8017823 25.9875228,10.241604 C26.4220699,11.8756532 27.246683,13.380055 28.3904853,14.6251616 C29.3324114,15.7924794 30.0098944,16.6339659 29.9678571,18.0077415 C29.8818276,20.9133162 26.6034164,23.3321007 25.3628308,24.2459941 C23.7356009,25.4186936 21.9167597,26.2978513 19.9874488,26.8448176 C18.1690964,27.4392398 16.6005229,27.9519594 16.0007599,29.7435428 C15.4078402,32.1094898 16.3815386,34.5918749 18.424741,35.9216193 C19.649196,36.5835561 21.0921466,36.7112469 22.4138737,36.2743587 C23.8617125,35.9377641 25.3584315,35.8658465 26.831688,36.0630086 C28.733626,36.3325779 30.3735649,36.5639866 31.1512526,37.6540052 C31.6126839,38.3051788 31.5887326,38.978368 31.4987925,40.2132005 C31.2934947,41.9612419 31.4709307,43.733256 32.0179028,45.405955 C32.4744461,46.7767952 33.1641492,48.8467542 34.8211961,49.0855016 C34.928733,49.1026249 35.0377365,49.111431 35.146251,49.111431 C36.3188928,49.111431 37.0364577,48.0752284 37.7911717,46.98521 C38.1245363,46.5033121 38.4921172,45.983254 38.93253,45.4612388 C40.9928406,48.7929382 43.085901,51.5732683 43.1831731,51.7053622 C43.3723405,51.957808 43.6690448,52.1060466 43.9838347,52.1060466 C44.2991136,52.1060466 44.5958179,51.957808 44.7849851,51.7053622 C46.9567432,48.7944059 48.9364011,45.7435281 50.7102722,42.5737658 C51.9401041,42.9304192 53.1112795,43.4646652 54.1866492,44.1598701 C49.1778704,52.8017408 39.9497319,58.1192505 29.9678571,58.1148474 Z M48.6528944,30.8487278 C50.1403262,32.1765151 50.9908459,34.0767091 50.9903571,36.0718149 C50.9903571,36.79246 50.698052,38.2210301 49.3098475,40.9343349 C47.7251437,43.8741561 45.9458956,46.7038991 43.9828571,49.4049729 C43.040931,48.0913733 41.4200556,45.7596729 39.969773,43.3090881 C39.1612905,41.965645 38.4393264,40.5727892 37.8073023,39.1378591 C37.3365836,38.1784665 37.0540546,37.1378609 36.9753571,36.0718149 C36.9797563,32.1999985 40.1144591,29.0625259 43.9828571,29.0581228 C44.1993975,29.0581228 44.4139826,29.0679075 44.6275902,29.0874769 C46.1243092,29.2229954 47.536954,29.8413901 48.6528944,30.8487278 Z M57.9626632,31.4260266 C57.7901153,35.2371777 56.8305922,38.9710294 55.1437282,42.3922591 C54.0468511,41.6980328 52.8649221,41.1471526 51.6282469,40.7528282 C52.4015355,39.3041993 52.8663885,37.7097782 52.9925,36.0718149 C52.9841904,32.6334619 51.0309279,29.4964785 47.9499937,27.973975 L47.886938,27.9460885 C47.6630655,27.8379673 47.4357715,27.7366954 47.2035894,27.6456974 C47.0442392,27.5835644 46.8790232,27.5351299 46.7157626,27.483271 C46.6155576,27.4529382 46.5256176,27.4152671 46.4283456,27.3829775 C46.1702569,27.309592 45.9077688,27.2499053 45.6438146,27.2004924 L45.6306168,27.2004924 C45.4707778,27.1706489 45.3084947,27.1545041 45.1462116,27.1334669 C42.5721676,26.7768137 39.9702618,27.5581241 38.0174881,29.273876 C36.0642257,30.990117 34.9531733,33.4710345 34.9732143,36.0718149 C35.0509342,37.4074301 35.3877204,38.7156481 35.9645096,39.9225941 C36.5256571,41.2014579 37.1586588,42.4475429 37.8605819,43.654489 C37.2349123,44.3399091 36.6620335,45.0713174 36.1463449,45.8428431 C35.8711479,46.3149561 35.5236081,46.7405917 35.1164339,47.1045835 C34.9160242,47.0742509 34.5450216,46.6466583 33.9149528,44.7719047 C33.4554766,43.3487162 33.3112793,41.8418683 33.4936033,40.3575253 C33.7536472,39.0243563 33.4980026,37.6422635 32.7789713,36.4906012 C31.5007478,34.7014638 29.2693557,34.3863958 27.0980864,34.0781768 C25.4102448,33.8472573 23.6945414,33.9245567 22.0345615,34.3056717 C20.7538941,34.5507792 20.1595079,34.6422663 19.479581,34.2180985 C18.2375289,33.3658487 17.6167473,31.8585116 17.8978099,30.3775931 C18.1651859,29.5762241 18.9663363,29.2865962 20.6008982,28.7494146 C22.7355071,28.1364015 24.747426,27.1579288 26.5481815,25.8570494 C28.0067738,24.7861111 31.8541534,21.9441372 31.97,18.0669391 C32.0340334,15.9456103 30.9738165,14.6369032 29.9487937,13.371738 C29.0014908,12.3560833 28.3122766,11.1276109 27.93883,9.78954945 C27.4070108,7.55716413 28.0659191,4.93926044 29.8529881,2.00531015 L29.9678571,2.00531015 C35.4791269,2.01313793 40.866729,3.64327341 45.4595352,6.69268348 C44.9291825,7.28417019 44.2873823,7.76460033 43.5703062,8.10657644 C42.8722935,8.40892456 42.1092699,8.52829823 41.3521117,8.4539343 C40.2992271,8.3237975 39.2365663,8.59728052 38.3767594,9.21958914 C36.1067517,10.9299594 35.0895498,15.2915014 37.1298193,18.5669387 C38.5820573,20.8883651 41.0627395,21.4294604 43.7716936,22.0204579 C45.2297972,22.3286769 46.7367811,22.3223168 48.1924407,22.0013778 C49.3606832,21.722513 50.5787839,21.7259377 51.7450711,22.0126301 C53.057511,22.3912991 54.2892981,23.0087155 55.379332,23.8330787 C56.511403,24.7729016 57.3697435,25.9999064 57.8649023,27.3859129 C57.9470215,28.2709414 57.9978571,29.1584162 57.9978571,30.0600788 C57.9978571,30.5082193 57.9890587,30.9617414 57.9587528,31.4260266 L57.9626632,31.4260266 Z" id="Shape"></path>
                            <path d="M14,12 C16.2089844,12 18,10.2094726 18,8 C18,5.79101562 16.2089844,4 14,4 C11.7910156,4 10,5.79101562 10,8 C10,10.2094726 11.7910156,12 14,12 Z M14,6 C15.1044923,6 16,6.89550775 16,8 C16,9.10449212 15.1044923,10 14,10 C12.8955078,10 12,9.10449212 12,8 C12,6.89550775 12.8955078,6 14,6 Z" id="Shape"></path>
                            <path d="M40,34 C40,36.2094726 41.7910156,38 44,38 C46.2089844,38 48,36.2094726 48,34 C48,31.7910156 46.2089844,30 44,30 C41.7910156,30 40,31.7910156 40,34 Z M46,34 C46,35.1044921 45.1044922,36 44,36 C42.8955078,36 42,35.1044921 42,34 C42,32.8955078 42.8955078,32 44,32 C45.1044922,32 46,32.8955078 46,34 Z" id="Shape"></path>
                        </g>
                    </g>
                </g>
            </g>
        </g>
    </g>
</svg>