<?xml version="1.0" encoding="UTF-8"?>
<svg width="123px" height="72px" viewBox="0 0 123 72" version="1.1" xmlns="http://www.w3.org/2000/svg" xmlns:xlink="http://www.w3.org/1999/xlink">
    <!-- Generator: Sketch 52.5 (67469) - http://www.bohemiancoding.com/sketch -->
    <title>Group 16</title>
    <desc>Created with Sketch.</desc>
    <g id="Page-1" stroke="none" stroke-width="1" fill="none" fill-rule="evenodd">
        <g id="main-page(Stels)" transform="translate(-1195.000000, -1231.000000)">
            <g id="Group-16" transform="translate(1195.000000, 1231.000000)">
                <polygon id="Fill-1" fill="#AFBDC5" points="9.565 35.9629 122.169 35.9629 122.169 35.1469 9.565 35.1469"></polygon>
                <polygon id="Fill-2" fill="#AFBDC5" points="14.739 30.8319 121.797 30.8319 121.797 30.0159 14.739 30.0159"></polygon>
                <polygon id="Fill-3" fill="#AFBDC5" points="14.739 41.0939 121.797 41.0939 121.797 40.2789 14.739 40.2789"></polygon>
                <polygon id="Fill-4" fill="#AFBDC5" points="42.0255 -1.42108547e-14 16.1245 35.555 42.0255 71.11 45.4435 65.609 37.2195 53.486 43.4145 44.834 40.0505 40.668 43.8785 35.555 40.0505 30.443 43.4145 26.276 37.2195 17.624 45.4435 5.501"></polygon>
                <polygon id="Fill-5" fill="#223966" points="43.146 25.902 43.414 26.276 43.057 26.717 122.322 26.717 122.322 25.902"></polygon>
                <polygon id="Fill-6" fill="#AFBDC5" points="0 25.902 0 26.717 40.115 26.717 40.71 25.902"></polygon>
                <polygon id="Fill-7" fill="#FEFEFE" points="23.1354 25.902 22.5404 26.717 43.0564 26.717 43.4144 26.276 43.1464 25.902"></polygon>
                <polygon id="Fill-8" fill="#223966" points="43.0569 44.3916 43.4139 44.8336 43.1459 45.2076 122.3219 45.2076 122.3219 44.3916"></polygon>
                <polygon id="Fill-9" fill="#AFBDC5" points="0 44.3916 0 45.2076 40.71 45.2076 40.115 44.3916"></polygon>
                <polygon id="Fill-10" fill="#FEFEFE" points="22.5405 44.3916 23.1355 45.2076 43.1455 45.2076 43.4145 44.8336 43.0565 44.3916"></polygon>
                <polygon id="Fill-11" fill="#FEFEFE" points="16.4223 35.1468 16.1243 35.5558 16.4223 35.9628 31.0213 35.9628 31.0213 35.1468"></polygon>
                <polygon id="Fill-12" fill="#FEFEFE" points="20.1591 30.0159 19.5651 30.8319 31.0211 30.8319 31.0211 30.0159"></polygon>
                <polygon id="Fill-13" fill="#FEFEFE" points="19.5651 40.2768 20.1591 41.0938 31.0211 41.0938 31.0211 40.2768"></polygon>
                <path d="M55.7168,32.8949 L60.9998,32.8949 L60.9998,29.5529 C60.3138,29.1859 59.6128,28.8909 58.8958,28.6729 C58.1748,28.4549 57.4348,28.2979 56.6718,28.2039 C55.9078,28.1079 55.1158,28.0609 54.2958,28.0629 C53.7258,28.0609 53.1598,28.0829 52.5978,28.1319 C52.0398,28.1819 51.5058,28.2699 50.9998,28.3969 C50.4908,28.5239 50.0348,28.7059 49.6278,28.9399 C49.2598,29.1579 48.9558,29.3739 48.7188,29.5889 C48.4828,29.8059 48.2948,30.0349 48.1608,30.2779 C48.0228,30.5199 47.9238,30.7909 47.8638,31.0889 C47.7998,31.3839 47.7578,31.7229 47.7398,32.1009 L47.7398,32.4159 C47.7398,33.0249 47.8178,33.5459 47.9698,33.9819 C48.1218,34.4169 48.3438,34.7839 48.6378,35.0849 C48.9348,35.3849 49.2998,35.6359 49.7338,35.8399 C50.1658,36.0439 50.6638,36.2209 51.2298,36.3699 C51.7918,36.5159 52.4178,36.6539 53.1078,36.7839 C53.5038,36.8549 53.8638,36.9239 54.1958,36.9959 C54.5288,37.0669 54.8188,37.1639 55.0658,37.2829 C55.3098,37.4039 55.5008,37.5719 55.6388,37.7869 C55.7738,38.0049 55.8438,38.2919 55.8438,38.6529 C55.8438,38.8269 55.8048,38.9979 55.7278,39.1639 C55.6498,39.3289 55.5298,39.4669 55.3668,39.5769 C55.2038,39.6849 54.9958,39.7429 54.7408,39.7459 C54.5258,39.7429 54.3268,39.7009 54.1438,39.6189 C53.9628,39.5359 53.8218,39.4249 53.7228,39.2819 C53.6308,39.1299 53.5808,38.9039 53.5668,38.6009 C53.5528,38.2999 53.5498,37.9359 53.5528,37.5119 L48.0158,37.5119 L48.0158,41.3169 C48.6348,41.6949 49.3058,41.9929 50.0308,42.2109 C50.7588,42.4289 51.5088,42.5829 52.2868,42.6739 C53.0608,42.7649 53.8398,42.8089 54.6138,42.8059 C55.6918,42.8039 56.6258,42.7269 57.4138,42.5749 C58.2028,42.4199 58.8638,42.2049 59.4008,41.9209 C59.9348,41.6369 60.3628,41.3009 60.6808,40.9089 C60.9998,40.5179 61.2288,40.0789 61.3668,39.5989 C61.5088,39.1189 61.5758,38.6059 61.5718,38.0579 L61.5718,37.9909 C61.5718,37.6579 61.5408,37.3269 61.4728,36.9959 C61.4028,36.6649 61.2958,36.3479 61.1478,36.0389 C61.0208,35.7439 60.8368,35.4869 60.5998,35.2669 C60.3628,35.0489 60.0768,34.8529 59.7478,34.6819 C59.4578,34.5329 59.1358,34.3979 58.7788,34.2739 C58.4218,34.1499 58.0498,34.0369 57.6648,33.9349 C57.2768,33.8319 56.8908,33.7389 56.5088,33.6559 C56.1268,33.5709 55.7628,33.4939 55.4198,33.4239 C55.2608,33.3919 55.0768,33.3469 54.8718,33.2919 C54.6668,33.2399 54.4688,33.1759 54.2778,33.1049 C54.0908,33.0299 53.9378,32.9499 53.8288,32.8619 C53.6838,32.7459 53.5918,32.6199 53.5458,32.4839 C53.5038,32.3459 53.4858,32.2079 53.4888,32.0679 C53.4888,31.8889 53.5308,31.7279 53.6168,31.5879 C53.6978,31.4439 53.8218,31.3339 53.9838,31.2509 C54.1508,31.1679 54.3518,31.1249 54.5918,31.1249 C54.8648,31.1269 55.0798,31.1769 55.2328,31.2709 C55.3878,31.3649 55.5008,31.4889 55.5678,31.6409 C55.6388,31.7919 55.6818,31.9549 55.6958,32.1279 C55.7138,32.3019 55.7198,32.4699 55.7168,32.6299 L55.7168,32.8949 Z M62.5268,34.7479 L66.5368,34.7479 L66.5368,32.3659 C66.5328,32.1499 66.5618,31.9689 66.6138,31.8189 C66.6708,31.6739 66.7738,31.5609 66.9188,31.4799 C67.0638,31.4029 67.2688,31.3619 67.5338,31.3559 L67.5338,38.6199 C67.5408,38.7969 67.5378,38.9729 67.5268,39.1419 C67.5158,39.3119 67.4668,39.4719 67.3818,39.6209 C67.2928,39.7669 67.1408,39.8999 66.9188,40.0099 L66.9188,42.5249 L73.8138,42.5249 L73.8138,40.0099 C73.5908,39.8999 73.4388,39.7669 73.3538,39.6209 C73.2658,39.4719 73.2198,39.3119 73.2048,39.1419 C73.1948,38.9729 73.1948,38.7969 73.1978,38.6199 L73.1978,31.3559 C73.4638,31.3619 73.6718,31.4029 73.8178,31.4799 C73.9618,31.5609 74.0618,31.6739 74.1168,31.8189 C74.1708,31.9689 74.1978,32.1499 74.1958,32.3659 L74.1958,34.7479 L78.2048,34.7479 L78.2048,28.3449 L62.5268,28.3449 L62.5268,34.7479 Z M87.6038,37.3959 L87.6038,37.8589 C87.6038,38.1479 87.5928,38.3969 87.5688,38.6059 C87.5468,38.8159 87.4838,38.9869 87.3838,39.1219 C87.2848,39.2539 87.1148,39.3539 86.8858,39.4169 C86.6528,39.4829 86.3268,39.5139 85.9058,39.5139 L85.5668,39.5139 L85.5668,36.6509 L89.1528,36.6509 L89.1528,33.8879 L85.5668,33.8879 L85.5668,31.3559 L85.9058,31.3559 C86.2838,31.3559 86.5888,31.3809 86.8158,31.4339 C87.0448,31.4859 87.2148,31.5659 87.3268,31.6739 C87.4408,31.7839 87.5188,31.9239 87.5538,32.0949 C87.5888,32.2659 87.6078,32.4729 87.6038,32.7129 L87.6038,33.1429 L92.8218,33.1429 L92.8218,28.3449 L79.2018,28.3449 L79.2018,30.8599 C79.4248,30.9699 79.5768,31.0999 79.6648,31.2489 C79.7498,31.3979 79.7998,31.5579 79.8108,31.7279 C79.8208,31.8969 79.8208,32.0709 79.8178,32.2499 L79.8178,38.6199 C79.8208,38.7969 79.8208,38.9729 79.8108,39.1419 C79.7998,39.3119 79.7498,39.4719 79.6648,39.6209 C79.5768,39.7669 79.4248,39.8999 79.2018,40.0099 L79.2018,42.5249 L92.8218,42.5249 L92.8218,37.3959 L87.6038,37.3959 Z M107.0148,42.5249 L107.0148,35.6419 L102.0298,35.6419 L102.0298,37.9419 C102.0328,38.1649 102.0268,38.3739 102.0118,38.5649 C101.9938,38.7549 101.9448,38.9209 101.8608,39.0639 C101.7748,39.2049 101.6368,39.3149 101.4388,39.3949 C101.2408,39.4719 100.9648,39.5139 100.6088,39.5139 L100.0568,39.5139 L100.0568,32.2499 C100.0528,32.0709 100.0528,31.8969 100.0638,31.7279 C100.0738,31.5579 100.1238,31.3979 100.2118,31.2489 C100.2968,31.0999 100.4488,30.9699 100.6718,30.8599 L100.6718,28.3449 L93.7778,28.3449 L93.7778,30.8599 C93.9998,30.9699 94.1518,31.0999 94.2398,31.2489 C94.3248,31.3979 94.3738,31.5579 94.3848,31.7279 C94.3958,31.8969 94.3958,32.0709 94.3928,32.2499 L94.3928,38.6199 C94.3958,38.7969 94.3958,38.9729 94.3848,39.1419 C94.3738,39.3119 94.3248,39.4719 94.2398,39.6209 C94.1518,39.7669 93.9998,39.8999 93.7778,40.0099 L93.7778,42.5249 L107.0148,42.5249 Z M116.3928,32.8949 L121.6748,32.8949 L121.6748,29.5529 C120.9878,29.1859 120.2888,28.8909 119.5708,28.6729 C118.8498,28.4549 118.1108,28.2979 117.3468,28.2039 C116.5828,28.1079 115.7908,28.0609 114.9708,28.0629 C114.4018,28.0609 113.8358,28.0829 113.2738,28.1319 C112.7148,28.1819 112.1808,28.2699 111.6748,28.3969 C111.1658,28.5239 110.7098,28.7059 110.3038,28.9399 C109.9358,29.1579 109.6308,29.3739 109.3948,29.5889 C109.1568,29.8059 108.9708,30.0349 108.8358,30.2779 C108.6978,30.5199 108.5998,30.7909 108.5388,31.0889 C108.4758,31.3839 108.4328,31.7229 108.4148,32.1009 L108.4148,32.4159 C108.4148,33.0249 108.4928,33.5459 108.6448,33.9819 C108.7968,34.4169 109.0198,34.7839 109.3138,35.0849 C109.6108,35.3849 109.9748,35.6359 110.4098,35.8399 C110.8408,36.0439 111.3388,36.2209 111.9048,36.3699 C112.4678,36.5159 113.0938,36.6539 113.7818,36.7839 C114.1788,36.8549 114.5388,36.9239 114.8718,36.9959 C115.2038,37.0669 115.4938,37.1639 115.7408,37.2829 C115.9858,37.4039 116.1768,37.5719 116.3148,37.7869 C116.4478,38.0049 116.5198,38.2919 116.5198,38.6529 C116.5198,38.8269 116.4808,38.9979 116.4028,39.1639 C116.3248,39.3289 116.2048,39.4669 116.0418,39.5769 C115.8798,39.6849 115.6708,39.7429 115.4158,39.7459 C115.1998,39.7429 115.0018,39.7009 114.8188,39.6189 C114.6388,39.5359 114.4968,39.4249 114.3988,39.2819 C114.3068,39.1299 114.2558,38.9039 114.2418,38.6009 C114.2288,38.2999 114.2248,37.9359 114.2288,37.5119 L108.6908,37.5119 L108.6908,41.3169 C109.3098,41.6949 109.9818,41.9929 110.7058,42.2109 C111.4348,42.4289 112.1848,42.5829 112.9628,42.6739 C113.7368,42.7649 114.5148,42.8089 115.2888,42.8059 C116.3668,42.8039 117.3008,42.7269 118.0898,42.5749 C118.8778,42.4199 119.5388,42.2049 120.0768,41.9209 C120.6108,41.6369 121.0378,41.3009 121.3568,40.9089 C121.6748,40.5179 121.9048,40.0789 122.0418,39.5989 C122.1838,39.1189 122.2508,38.6059 122.2468,38.0579 L122.2468,37.9909 C122.2468,37.6579 122.2158,37.3269 122.1488,36.9959 C122.0778,36.6649 121.9718,36.3479 121.8228,36.0389 C121.6958,35.7439 121.5118,35.4869 121.2758,35.2669 C121.0378,35.0489 120.7518,34.8529 120.4228,34.6819 C120.1328,34.5329 119.8118,34.3979 119.4538,34.2739 C119.0968,34.1499 118.7258,34.0369 118.3408,33.9349 C117.9508,33.8319 117.5658,33.7389 117.1848,33.6559 C116.8028,33.5709 116.4388,33.4939 116.0948,33.4239 C115.9368,33.3919 115.7518,33.3469 115.5468,33.2919 C115.3418,33.2399 115.1438,33.1759 114.9528,33.1049 C114.7658,33.0299 114.6128,32.9499 114.5038,32.8619 C114.3598,32.7459 114.2678,32.6199 114.2208,32.4839 C114.1788,32.3459 114.1608,32.2079 114.1638,32.0679 C114.1638,31.8889 114.2068,31.7279 114.2918,31.5879 C114.3728,31.4439 114.4968,31.3339 114.6588,31.2509 C114.8258,31.1679 115.0278,31.1249 115.2678,31.1249 C115.5398,31.1269 115.7558,31.1769 115.9078,31.2709 C116.0638,31.3649 116.1768,31.4889 116.2438,31.6409 C116.3148,31.7919 116.3568,31.9549 116.3708,32.1279 C116.3888,32.3019 116.3958,32.4699 116.3928,32.6299 L116.3928,32.8949 Z" id="Fill-14" fill="#223966"></path>
            </g>
        </g>
    </g>
</svg>